<?xml version="1.0" encoding="utf-8"?>
<!-- Generator: Adobe Illustrator 26.0.1, SVG Export Plug-In . SVG Version: 6.00 Build 0)  -->
<svg version="1.1" id="Layer_1" xmlns="http://www.w3.org/2000/svg" xmlns:xlink="http://www.w3.org/1999/xlink" x="0px" y="0px"
	 viewBox="0 0 750 500" style="enable-background:new 0 0 750 500;" xml:space="preserve">
<style type="text/css">
	.st0{fill:#FFFFFF;}
	.st1{fill:url(#SVGID_1_);}
	.st2{opacity:0.5;fill:#FFFFFF;enable-background:new    ;}
	.st3{fill:url(#SVGID_00000106142078477782220400000016528444518053659280_);}
	.st4{fill:url(#SVGID_00000070798626499694729500000006140396590563719343_);}
	.st5{fill:url(#SVGID_00000049186147620266603090000011550785139828287143_);}
	.st6{fill:url(#SVGID_00000049207354522270908940000014041797235580241847_);}
	.st7{fill:url(#SVGID_00000174597101557569878550000014165496060939855784_);}
	.st8{fill:url(#SVGID_00000109729624753462430670000009976258132117396923_);}
	.st9{fill:url(#SVGID_00000095300757188857098890000011324376385167060356_);}
	.st10{fill:url(#SVGID_00000026124971657716127890000007594209757126826672_);}
	.st11{fill:url(#SVGID_00000125568195928833441500000007274634418833293993_);}
	.st12{fill:url(#SVGID_00000177465015263088988550000015388355846823622532_);}
	.st13{fill:#476AA8;}
	.st14{fill:url(#SVGID_00000062900850719300124420000005491319516650007219_);}
	.st15{fill:url(#SVGID_00000112592333080940032770000013789688728455105676_);}
	.st16{fill:url(#SVGID_00000156564427279453114400000014760879436135491224_);}
	.st17{fill:url(#SVGID_00000145769221744986677490000015938616610905251723_);}
	.st18{fill:url(#SVGID_00000054980811069729678240000015224308054361975210_);}
	.st19{fill:url(#SVGID_00000025444693547803639880000015550151906565894816_);}
	.st20{fill:url(#SVGID_00000144320481623464455620000012303131251721117368_);}
	.st21{fill:url(#SVGID_00000163048067653541382270000014510773459630979714_);}
	.st22{fill:url(#SVGID_00000080173539260384874560000002427293485439706788_);}
</style>
<g id="OBJECTS">
	<g>
		<g>
			<path class="st0" d="M434.8,67.9H311.9c-20.4,0-36.9,16.5-36.9,36.9v296.4c0,20.4,16.5,36.9,36.9,36.9h122.9
				c20.4,0,36.9-16.5,36.9-36.9V104.8C471.7,84.4,455.2,67.9,434.8,67.9z"/>
			
				<linearGradient id="SVGID_1_" gradientUnits="userSpaceOnUse" x1="292.6073" y1="329.0183" x2="460.5797" y2="161.0458" gradientTransform="matrix(1 0 0 -1 0 501.2756)">
				<stop  offset="0" style="stop-color:#073149"/>
				<stop  offset="1" style="stop-color:#130933"/>
			</linearGradient>
			<path class="st1" d="M462.4,104.8v296.4c0,15.2-12.4,27.6-27.6,27.6H311.9c-15.2,0-27.6-12.4-27.6-27.6V104.8
				c0-15.2,12.4-27.6,27.6-27.6h15v2c0,6.5,5.2,11.7,11.7,11.7h69.5c6.5,0,11.7-5.2,11.7-11.7v-2h15
				C450,77.2,462.4,89.6,462.4,104.8z"/>
		</g>
		<path class="st0" d="M369.3,290.2h-66.1c-3.8,0-7,3.1-7,7v48c0,3.8,3.1,7,7,7h66.1c3.8,0,7-3.1,7-7v-48
			C376.3,293.3,373.2,290.2,369.3,290.2z"/>
		<g>
			<path class="st0" d="M401.9,111h-58.1c-1.4,0-2.6,1.2-2.6,2.6l0,0c0,1.4,1.2,2.6,2.6,2.6h58.1c1.4,0,2.6-1.2,2.6-2.6l0,0
				C404.5,112.2,403.4,111,401.9,111z"/>
			<path class="st0" d="M384.8,130.7h-23.9c-1.4,0-2.6,1.2-2.6,2.6l0,0c0,1.4,1.2,2.6,2.6,2.6h23.9c1.4,0,2.6-1.2,2.6-2.6l0,0
				C387.5,131.9,386.3,130.7,384.8,130.7z"/>
		</g>
	</g>
	<g>
		<path class="st2" d="M185.6,135.1v28.1c0,3.9-3.1,7-7,7h-28.1c-3.9,0-7-3.1-7-7v-28.1c0-0.4,0-0.8,0.1-1.1h41.9
			C185.6,134.3,185.6,134.7,185.6,135.1z"/>
		<path class="st2" d="M104.8,210.1H83.6c-2.9,0-5.3-2.4-5.3-5.3v-21.3c0-2.9,2.4-5.3,5.3-5.3h21.3c2.9,0,5.3,2.4,5.3,5.3v21.3
			C110.1,207.8,107.8,210.1,104.8,210.1z"/>
		<path class="st2" d="M118.9,221.2h-17.4c-2.4,0-4.3-1.9-4.3-4.3v-17.4c0-2.4,1.9-4.3,4.3-4.3h17.4c2.4,0,4.3,1.9,4.3,4.3v17.4
			C123.2,219.3,121.3,221.2,118.9,221.2z"/>
		<path class="st2" d="M260.7,220.3h-41.4c-5.7,0-10.3-4.6-10.3-10.3v-41.4c0-5.7,4.6-10.3,10.3-10.3h41.4c5.7,0,10.3,4.6,10.3,10.3
			V210C271,215.7,266.4,220.3,260.7,220.3z"/>
		<path class="st2" d="M156,276h-24.9c-3.4,0-6.2,2.8-6.2,6.2v24.9c0,3.4,2.8,6.2,6.2,6.2H156c3.4,0,6.2-2.8,6.2-6.2v-24.9
			C162.2,278.8,159.4,276,156,276z M159.2,307.1c0,1.8-1.4,3.2-3.2,3.2h-24.9c-1.8,0-3.2-1.4-3.2-3.2v-24.9c0-1.8,1.4-3.2,3.2-3.2
			H156c1.8,0,3.2,1.4,3.2,3.2V307.1z"/>
		<path class="st2" d="M153.2,335.8h-13.9c-1.9,0-3.4,1.5-3.4,3.4v13.9c0,1.9,1.5,3.4,3.4,3.4h13.9c1.9,0,3.4-1.5,3.4-3.4v-13.9
			C156.6,337.3,155.1,335.8,153.2,335.8z M155,353.1c0,1-0.8,1.8-1.8,1.8h-13.9c-1,0-1.8-0.8-1.8-1.8v-13.9c0-1,0.8-1.8,1.8-1.8
			h13.9c1,0,1.8,0.8,1.8,1.8V353.1z"/>
		<path class="st2" d="M656.5,356.3h-19.1c-2.6,0-4.7,2.1-4.7,4.7v19.1c0,2.6,2.1,4.7,4.7,4.7h19.1c2.6,0,4.7-2.1,4.7-4.7V361
			C661.2,358.5,659.1,356.3,656.5,356.3z M658.9,380.2c0,1.3-1.1,2.4-2.4,2.4h-19.1c-1.3,0-2.4-1.1-2.4-2.4v-19.1
			c0-1.3,1.1-2.4,2.4-2.4h19.1c1.3,0,2.4,1.1,2.4,2.4V380.2z"/>
		<path class="st2" d="M638.2,143.6h-19.1c-2.6,0-4.7,2.1-4.7,4.7v19.1c0,2.6,2.1,4.7,4.7,4.7h19.1c2.6,0,4.7-2.1,4.7-4.7v-19.1
			C643,145.7,640.8,143.6,638.2,143.6z M640.7,167.4c0,1.3-1.1,2.4-2.4,2.4h-19.1c-1.3,0-2.4-1.1-2.4-2.4v-19.1
			c0-1.3,1.1-2.4,2.4-2.4h19.1c1.3,0,2.4,1.1,2.4,2.4V167.4z"/>
		<path class="st2" d="M548,143.6h-19.1c-2.6,0-4.7,2.1-4.7,4.7v19.1c0,2.6,2.1,4.7,4.7,4.7H548c2.6,0,4.7-2.1,4.7-4.7v-19.1
			C552.7,145.7,550.6,143.6,548,143.6z M550.4,167.4c0,1.3-1.1,2.4-2.4,2.4h-19.1c-1.3,0-2.4-1.1-2.4-2.4v-19.1
			c0-1.3,1.1-2.4,2.4-2.4H548c1.3,0,2.4,1.1,2.4,2.4V167.4z"/>
		<path class="st2" d="M676.8,266h-15.6c-2.1,0-3.9,1.7-3.9,3.9v15.6c0,2.1,1.7,3.9,3.9,3.9h15.6c2.1,0,3.9-1.7,3.9-3.9v-15.6
			C680.6,267.8,678.9,266,676.8,266z M678.8,285.5c0,1.1-0.9,2-2,2h-15.6c-1.1,0-2-0.9-2-2v-15.6c0-1.1,0.9-2,2-2h15.6
			c1.1,0,2,0.9,2,2V285.5z"/>
		<path class="st2" d="M324.3,24.5h-15.6c-2.1,0-3.9,1.7-3.9,3.9V44c0,2.1,1.7,3.9,3.9,3.9h15.6c2.1,0,3.9-1.7,3.9-3.9V28.4
			C328.2,26.2,326.4,24.5,324.3,24.5z M326.3,44c0,1.1-0.9,2-2,2h-15.6c-1.1,0-2-0.9-2-2V28.4c0-1.1,0.9-2,2-2h15.6c1.1,0,2,0.9,2,2
			V44z"/>
		<path class="st2" d="M372.8,454.5h-15.6c-2.1,0-3.9,1.7-3.9,3.9V474c0,2.1,1.7,3.9,3.9,3.9h15.6c2.1,0,3.9-1.7,3.9-3.9v-15.6
			C376.7,456.2,375,454.5,372.8,454.5z M374.8,474c0,1.1-0.9,2-2,2h-15.6c-1.1,0-2-0.9-2-2v-15.6c0-1.1,0.9-2,2-2h15.6
			c1.1,0,2,0.9,2,2V474z"/>
		<path class="st2" d="M163.3,345.3h-12.1c-1.7,0-3-1.3-3-3v-12.1c0-1.7,1.3-3,3-3h12.1c1.7,0,3,1.3,3,3v12.1
			C166.3,343.9,165,345.3,163.3,345.3z"/>
		<path class="st2" d="M622.9,159.4h-28.3c-3.9,0-7-3.1-7-7v-28.3c0-3.9,3.1-7,7-7h28.3c3.9,0,7,3.1,7,7v28.3
			C629.9,156.3,626.7,159.4,622.9,159.4z"/>
		<path class="st2" d="M487.2,98.7h-40c-5.5,0-9.9-4.4-9.9-9.9v-40c0-5.5,4.4-9.9,9.9-9.9h40c5.5,0,9.9,4.4,9.9,9.9v40
			C497.2,94.2,492.7,98.7,487.2,98.7z"/>
		<path class="st2" d="M385.9,51.4H369c-2.3,0-4.2-1.9-4.2-4.2v-17c0-2.3,1.9-4.2,4.2-4.2h16.9c2.3,0,4.2,1.9,4.2,4.2v16.9
			C390.1,49.5,388.2,51.4,385.9,51.4z"/>
		<path class="st2" d="M419.6,468.8h-11.9c-1.6,0-3-1.3-3-3v-11.9c0-1.6,1.3-3,3-3h11.9c1.6,0,3,1.3,3,3v11.9
			C422.6,467.5,421.3,468.8,419.6,468.8z"/>
		<path class="st2" d="M277.5,454h-26.4c-3.6,0-6.5-2.9-6.5-6.5v-26.4c0-3.6,2.9-6.5,6.5-6.5h26.4c3.6,0,6.5,2.9,6.5,6.5v26.4
			C284,451.1,281.1,454,277.5,454z"/>
		<path class="st2" d="M523.3,273h-12.4c-1.7,0-3.1-1.4-3.1-3.1v-12.4c0-1.7,1.4-3.1,3.1-3.1h12.4c1.7,0,3.1,1.4,3.1,3.1v12.4
			C526.4,271.6,525,273,523.3,273z"/>
		<path class="st2" d="M654,215.7h-20.1c-2.7,0-5-2.2-5-5v-20.1c0-2.7,2.2-5,5-5H654c2.7,0,5,2.2,5,5v20.1
			C658.9,213.4,656.7,215.7,654,215.7z"/>
		<path class="st2" d="M634.7,286.6h-13.4c-1.8,0-3.3-1.5-3.3-3.3v-13.4c0-1.8,1.5-3.3,3.3-3.3h13.4c1.8,0,3.3,1.5,3.3,3.3v13.4
			C638,285.1,636.5,286.6,634.7,286.6z"/>
		<path class="st2" d="M675.9,370.7h-23.7c-3.2,0-5.9-2.6-5.9-5.9V341c0-3.2,2.6-5.9,5.9-5.9h23.7c3.2,0,5.9,2.6,5.9,5.9v23.7
			C681.8,368,679.2,370.7,675.9,370.7z"/>
		<path class="st2" d="M673,228.8h-18.7c-2.6,0-4.6-2.1-4.6-4.6v-18.7c0-2.6,2.1-4.6,4.6-4.6H673c2.6,0,4.6,2.1,4.6,4.6v18.7
			C677.6,226.8,675.5,228.8,673,228.8z"/>
		<path class="st2" d="M253.8,430.1h-24.9c-3.4,0-6.2-2.8-6.2-6.2V399c0-3.4,2.8-6.2,6.2-6.2h24.9c3.4,0,6.2,2.8,6.2,6.2v24.9
			C260,427.3,257.2,430.1,253.8,430.1z"/>
		<path class="st2" d="M82.1,273H66.2c-2.2,0-3.9-1.8-3.9-3.9v-15.9c0-2.2,1.8-3.9,3.9-3.9h15.9c2.2,0,3.9,1.8,3.9,3.9v15.9
			C86,271.2,84.2,273,82.1,273z"/>
	</g>
	<g>
		
			<image style="overflow:visible;opacity:0.45;enable-background:new    ;" width="146" height="147" xlink:href="95848755.png"  transform="matrix(0.9966 0 0 0.9966 238.2496 146.7726)">
		</image>
		<g>
			
				<linearGradient id="SVGID_00000098912324327176928010000003995448028333450156_" gradientUnits="userSpaceOnUse" x1="376.9871" y1="215.2884" x2="267.3818" y2="324.8938" gradientTransform="matrix(1 0 0 -1 0 501.2756)">
				<stop  offset="0" style="stop-color:#0837FF"/>
				<stop  offset="1" style="stop-color:#00B1FF"/>
			</linearGradient>
			<path style="fill:url(#SVGID_00000098912324327176928010000003995448028333450156_);" d="M350.5,270.8h-92.9
				c-6.3,0-11.3-5.1-11.3-11.3v-92.9c0-6.3,5.1-11.3,11.3-11.3h92.9c6.3,0,11.3,5.1,11.3,11.3v92.9
				C361.8,265.8,356.8,270.8,350.5,270.8z"/>
		</g>
	</g>
	<g>
		<path class="st0" d="M281.2,200.1v21.5c0,8.1,3.6,11.6,8.5,11.6c5.4,0,8.8-3.6,8.8-11.6v-21.5h4.7v21.2c0,11.1-5.9,15.7-13.7,15.7
			c-7.4,0-13-4.3-13-15.5v-21.4H281.2z"/>
		<path class="st0" d="M316,200.1v36.3h-4.7v-36.3H316z"/>
	</g>
	<g>
		<g>
			
				<image style="overflow:visible;opacity:0.45;enable-background:new    ;" width="147" height="146" xlink:href="95848757.png"  transform="matrix(1 0 0 1 376 146)">
			</image>
			<g>
				
					<linearGradient id="SVGID_00000144319069423865609090000003386820965212373942_" gradientUnits="userSpaceOnUse" x1="410.4425" y1="321.433" x2="474.6626" y2="257.213" gradientTransform="matrix(1 0 0 -1 0 501.2756)">
					<stop  offset="0" style="stop-color:#FFA415"/>
					<stop  offset="0.9995" style="stop-color:#FF2A65"/>
				</linearGradient>
				<path style="fill:url(#SVGID_00000144319069423865609090000003386820965212373942_);" d="M489.1,269.8h-92.9
					c-6.3,0-11.3-5.1-11.3-11.3v-92.9c0-6.3,5.1-11.3,11.3-11.3h92.9c6.3,0,11.3,5.1,11.3,11.3v92.9
					C500.4,264.7,495.3,269.8,489.1,269.8z"/>
			</g>
		</g>
		<g>
			<path class="st0" d="M411.8,199.1v21.5c0,8.1,3.6,11.6,8.5,11.6c5.4,0,8.8-3.6,8.8-11.6v-21.5h4.7v21.2
				c0,11.1-5.9,15.7-13.7,15.7c-7.4,0-13-4.3-13-15.5v-21.4H411.8z"/>
			<path class="st0" d="M461.8,235.4l-4.6-8c-1.9-3.1-3.1-5.1-4.2-7.2h-0.1c-1,2.1-2,4-3.9,7.2l-4.4,8h-5.4l11.1-18.4l-10.7-17.9
				h5.4l4.8,8.5c1.3,2.4,2.4,4.2,3.3,6.1h0.2c1-2.2,1.9-3.8,3.3-6.1l5-8.5h5.4l-11,17.7l11.3,18.6L461.8,235.4L461.8,235.4z"/>
		</g>
	</g>
	<g>
		
			<linearGradient id="SVGID_00000019677973762400822510000004673046829559924101_" gradientUnits="userSpaceOnUse" x1="233.1676" y1="187.2079" x2="198.1015" y2="222.2741" gradientTransform="matrix(1 0 0 -1 0 501.2756)">
			<stop  offset="0" style="stop-color:#FFA415"/>
			<stop  offset="0.9995" style="stop-color:#FF2A65"/>
		</linearGradient>
		<path style="fill:url(#SVGID_00000019677973762400822510000004673046829559924101_);" d="M235.9,312.3h-34.6
			c-7.1,0-12.8-5.7-12.8-12.8l0,0c0-7.1,5.7-12.8,12.8-12.8h34.6c7.1,0,12.8,5.7,12.8,12.8l0,0C248.6,306.6,242.9,312.3,235.9,312.3
			z"/>
		
			<linearGradient id="SVGID_00000112630929502743168120000010914794170838302909_" gradientUnits="userSpaceOnUse" x1="240.3896" y1="195.886" x2="226.1915" y2="210.0841" gradientTransform="matrix(1 0 0 -1 0 501.2756)">
			<stop  offset="0" style="stop-color:#073149"/>
			<stop  offset="1" style="stop-color:#130933"/>
		</linearGradient>
		<circle style="fill:url(#SVGID_00000112630929502743168120000010914794170838302909_);" cx="234.5" cy="299.5" r="10.1"/>
	</g>
	<g>
		<path class="st0" d="M235.9,349.5h-34.6c-7.1,0-12.8-5.7-12.8-12.8l0,0c0-7.1,5.7-12.8,12.8-12.8h34.6c7.1,0,12.8,5.7,12.8,12.8
			l0,0C248.6,343.7,242.9,349.5,235.9,349.5z"/>
		
			<linearGradient id="SVGID_00000085229659245230243430000004249847358181729664_" gradientUnits="userSpaceOnUse" x1="192.3525" y1="164.5756" x2="212.5921" y2="164.5756" gradientTransform="matrix(1 0 0 -1 0 501.2756)">
			<stop  offset="0" style="stop-color:#FFA415"/>
			<stop  offset="0.9995" style="stop-color:#FF2A65"/>
		</linearGradient>
		<circle style="fill:url(#SVGID_00000085229659245230243430000004249847358181729664_);" cx="202.5" cy="336.7" r="10.1"/>
	</g>
	<g>
		
			<linearGradient id="SVGID_00000067944883388709994720000013913364430870271135_" gradientUnits="userSpaceOnUse" x1="148.4751" y1="307.3247" x2="193.5531" y2="262.2467" gradientTransform="matrix(1 0 0 -1 0 501.2756)">
			<stop  offset="0" style="stop-color:#FFA415"/>
			<stop  offset="0.9995" style="stop-color:#FF2A65"/>
		</linearGradient>
		<path style="fill:url(#SVGID_00000067944883388709994720000013913364430870271135_);" d="M211.4,218.5c0,22-18.5,39.6-40.8,38.1
			c-18.8-1.3-34.1-16.5-35.4-35.3c-1.5-21.7,15.1-39.9,36.3-40.9c1,0,1.8,0.7,1.8,1.7v0.2c0,0.9-0.7,1.6-1.6,1.6
			c-19.2,0.8-34.4,17.4-33,37.1c1.2,17.1,15,31,32.1,32.1c20.3,1.4,37.1-14.6,37.1-34.6c0-8.1-2.8-15.5-7.4-21.4
			c-0.5-0.7-0.5-1.6,0.1-2.2l0.1-0.1c0.7-0.7,1.9-0.6,2.5,0.2C208.4,201.5,211.4,209.7,211.4,218.5z"/>
	</g>
	<g>
		<path class="st0" d="M159.1,220c0.3,0,0.6,0,1,0c0.7-0.1,1.4-0.4,1.9-0.9c0.6-0.6,1.1-1.4,1.2-2.5l0,0c-0.5,0.6-1.3,1-2.2,1
			c-1.7,0-2.7-1.3-2.7-2.8c0-1.8,1.3-3.3,3.2-3.3s3.1,1.5,3.1,3.9c0,2-0.7,3.5-1.6,4.3c-0.7,0.7-1.7,1.1-2.7,1.2
			c-0.5,0.1-0.9,0.1-1.2,0.1V220z M159.6,214.7c0,1.2,0.7,2,1.8,2c0.8,0,1.5-0.4,1.8-1c0.1-0.1,0.1-0.3,0.1-0.5
			c0-1.6-0.6-2.8-1.9-2.8C160.3,212.5,159.6,213.4,159.6,214.7z"/>
		<path class="st0" d="M171.2,212.7h-3.5l-0.4,2.4c0.2,0,0.4-0.1,0.8-0.1c0.7,0,1.4,0.2,2,0.5c0.7,0.4,1.3,1.2,1.3,2.4
			c0,1.8-1.4,3.2-3.4,3.2c-1,0-1.9-0.3-2.3-0.6l0.3-1c0.4,0.2,1.1,0.5,2,0.5c1.2,0,2.2-0.8,2.2-2s-0.8-2.1-2.7-2.1
			c-0.5,0-0.9,0.1-1.3,0.1l0.6-4.4h4.4L171.2,212.7L171.2,212.7z"/>
		<path class="st0" d="M177.2,214.3c0,2-1,2.9-2.2,2.9s-2.1-0.9-2.2-2.8c0-1.9,1-2.9,2.2-2.9C176.3,211.5,177.2,212.5,177.2,214.3z
			 M173.8,214.4c0,1.2,0.4,2.1,1.2,2.1s1.2-0.9,1.2-2.1c0-1.1-0.3-2.1-1.2-2.1C174.2,212.3,173.8,213.2,173.8,214.4z M174.8,221.1
			l5.4-9.6h0.8l-5.4,9.6H174.8z M183.2,218.1c0,2-1,2.9-2.2,2.9s-2.2-0.9-2.2-2.8c0-1.9,1-2.9,2.2-2.9
			C182.3,215.3,183.2,216.3,183.2,218.1z M179.8,218.2c0,1.2,0.4,2.1,1.2,2.1s1.2-0.9,1.2-2.1c0-1.1-0.3-2.1-1.2-2.1
			C180.2,216.1,179.8,217,179.8,218.2z"/>
	</g>
	<g>
		
			<linearGradient id="SVGID_00000018955583758374518170000003035154683857585581_" gradientUnits="userSpaceOnUse" x1="588.4244" y1="247.2521" x2="535.1698" y2="300.5066" gradientTransform="matrix(1 0 0 -1 0 501.2756)">
			<stop  offset="0" style="stop-color:#0837FF"/>
			<stop  offset="1" style="stop-color:#00B1FF"/>
		</linearGradient>
		<path style="fill:url(#SVGID_00000018955583758374518170000003035154683857585581_);" d="M588.1,245.8c-7.5,7.3-18,11.6-29.5,10.8
			c-18.7-1.3-33.9-16.4-35.3-35.2c-1.6-21.7,15-40,36.2-41c1,0,1.8,0.7,1.8,1.7l0,0c0,0.9-0.7,1.7-1.6,1.7
			c-18.4,0.8-33.1,16-33.1,34.6c0,19.2,15.5,34.7,34.7,34.7c9.5,0,18.1-3.8,24.3-10c0.7-0.7,1.8-0.6,2.4,0l0,0
			C588.9,244,588.8,245.1,588.1,245.8z"/>
	</g>
	<g>
		<path class="st0" d="M552.6,211.7v0.8l-4,8.4h-1.3l4-8.2l0,0h-4.5v-1H552.6z"/>
		<path class="st0" d="M559.4,212.7h-3.5l-0.4,2.4c0.2,0,0.4-0.1,0.8-0.1c0.7,0,1.4,0.2,2,0.5c0.7,0.4,1.3,1.2,1.3,2.4
			c0,1.8-1.4,3.2-3.4,3.2c-1,0-1.9-0.3-2.3-0.6l0.3-1c0.4,0.2,1.1,0.5,2,0.5c1.2,0,2.2-0.8,2.2-2s-0.8-2.1-2.7-2.1
			c-0.5,0-0.9,0.1-1.3,0.1l0.6-4.4h4.4L559.4,212.7L559.4,212.7z"/>
		<path class="st0" d="M565.4,214.3c0,2-1,2.9-2.2,2.9s-2.1-0.9-2.2-2.8c0-1.9,1-2.9,2.2-2.9C564.5,211.5,565.4,212.5,565.4,214.3z
			 M562,214.4c0,1.2,0.4,2.1,1.2,2.1s1.2-0.9,1.2-2.1c0-1.1-0.3-2.1-1.2-2.1C562.4,212.3,562,213.2,562,214.4z M563,221.1l5.4-9.6
			h0.8l-5.4,9.6H563z M571.4,218.1c0,2-1,2.9-2.2,2.9s-2.2-0.9-2.2-2.8c0-1.9,1-2.9,2.2-2.9C570.5,215.3,571.4,216.3,571.4,218.1z
			 M568,218.2c0,1.2,0.4,2.1,1.2,2.1s1.2-0.9,1.2-2.1c0-1.1-0.3-2.1-1.2-2.1C568.4,216.1,568,217,568,218.2z"/>
	</g>
	<g>
		
			<linearGradient id="SVGID_00000027606180394296537690000017884150947520530347_" gradientUnits="userSpaceOnUse" x1="432.1083" y1="241.7173" x2="498.5693" y2="175.2563" gradientTransform="matrix(1 0 0 -1 0 501.2756)">
			<stop  offset="0" style="stop-color:#FFA415"/>
			<stop  offset="0.9995" style="stop-color:#FF2A65"/>
		</linearGradient>
		<path style="fill:url(#SVGID_00000027606180394296537690000017884150947520530347_);" d="M544.7,293.6H392.2
			c-1.3,0-2.3,1.1-2.3,2.3l0,0c0,1.3,1.1,2.3,2.3,2.3h152.5c1.3,0,2.3-1.1,2.3-2.3l0,0C547,294.7,546,293.6,544.7,293.6z"/>
		
			<linearGradient id="SVGID_00000118363301417137969730000008421582429977418642_" gradientUnits="userSpaceOnUse" x1="481.8181" y1="170.2261" x2="434.5608" y2="217.4834" gradientTransform="matrix(1 0 0 -1 0 501.2756)">
			<stop  offset="0" style="stop-color:#0837FF"/>
			<stop  offset="1" style="stop-color:#00B1FF"/>
		</linearGradient>
		<path style="fill:url(#SVGID_00000118363301417137969730000008421582429977418642_);" d="M544.7,315.4H392.2
			c-1.3,0-2.3,1.1-2.3,2.3l0,0c0,1.3,1.1,2.3,2.3,2.3h152.5c1.3,0,2.3-1.1,2.3-2.3l0,0C547,316.4,546,315.4,544.7,315.4z"/>
		
			<linearGradient id="SVGID_00000145771898915581754320000015759356099785361586_" gradientUnits="userSpaceOnUse" x1="432.1281" y1="194.4975" x2="498.5891" y2="128.0365" gradientTransform="matrix(1 0 0 -1 0 501.2756)">
			<stop  offset="0" style="stop-color:#FFA415"/>
			<stop  offset="0.9995" style="stop-color:#FF2A65"/>
		</linearGradient>
		<path style="fill:url(#SVGID_00000145771898915581754320000015759356099785361586_);" d="M544.7,340.8H392.2
			c-1.3,0-2.3,1.1-2.3,2.3l0,0c0,1.3,1.1,2.3,2.3,2.3h152.5c1.3,0,2.3-1.1,2.3-2.3l0,0C547,341.9,546,340.8,544.7,340.8z"/>
		<path class="st13" d="M544.7,293.6H490v4.7h54.7c1.3,0,2.3-1.1,2.3-2.3C547,294.7,546,293.6,544.7,293.6z"/>
		<path class="st13" d="M544.7,315.4H442.2v4.7h102.5c1.3,0,2.3-1.1,2.3-2.3C547,316.4,546,315.4,544.7,315.4z"/>
		<path class="st13" d="M544.7,340.8H514v4.7h30.7c1.3,0,2.3-1.1,2.3-2.3C547,341.9,546,340.8,544.7,340.8z"/>
		<g>
			
				<image style="overflow:visible;opacity:0.45;enable-background:new    ;" width="44" height="44" xlink:href="95848752.png"  transform="matrix(1 0 0 1 477 280)">
			</image>
			<g>
				<g>
					<g>
						<path class="st0" d="M498.8,295.3c0,3.7-3,6.6-6.6,6.6c-3.7,0-6.6-3-6.6-6.6c0-3.7,3-6.6,6.6-6.6
							C495.9,288.6,498.8,291.6,498.8,295.3z"/>
					</g>
				</g>
			</g>
		</g>
		<g>
			
				<image style="overflow:visible;opacity:0.45;enable-background:new    ;" width="44" height="44" xlink:href="95848753.png"  transform="matrix(1 0 0 1 429 302)">
			</image>
			<g>
				<g>
					<g>
						<path class="st0" d="M450.7,317c0,3.7-3,6.6-6.6,6.6c-3.7,0-6.6-3-6.6-6.6c0-3.7,3-6.6,6.6-6.6
							C447.8,310.4,450.8,313.3,450.7,317z"/>
					</g>
				</g>
			</g>
		</g>
		<g>
			
				<image style="overflow:visible;opacity:0.45;enable-background:new    ;" width="44" height="45" xlink:href="9584875D.png"  transform="matrix(1 0 0 1 500 327)">
			</image>
			<g>
				<g>
					<g>
						
							<ellipse transform="matrix(0.6624 -0.7491 0.7491 0.6624 -82.8222 501.1894)" class="st0" cx="514.7" cy="342.5" rx="6.6" ry="6.6"/>
					</g>
				</g>
			</g>
		</g>
	</g>
	<g>
		
			<linearGradient id="SVGID_00000093157363502565246710000010568556829338220694_" gradientUnits="userSpaceOnUse" x1="424.8513" y1="60.0743" x2="352.907" y2="132.0185" gradientTransform="matrix(1 0 0 -1 0 501.2756)">
			<stop  offset="0" style="stop-color:#0837FF"/>
			<stop  offset="1" style="stop-color:#00B1FF"/>
		</linearGradient>
		<path style="fill:url(#SVGID_00000093157363502565246710000010568556829338220694_);" d="M409.2,403.6h-66.5
			c-2.4,0-4.3-1.9-4.3-4.3v-14c0-2.4,1.9-4.3,4.3-4.3h66.5c2.4,0,4.3,1.9,4.3,4.3v14C413.4,401.7,411.5,403.6,409.2,403.6z"/>
		<path class="st0" d="M390.1,390h-28.3c-1.5,0-2.7,1.2-2.7,2.7l0,0c0,1.5,1.2,2.7,2.7,2.7h28.3c1.5,0,2.7-1.2,2.7-2.7l0,0
			C392.8,391.2,391.6,390,390.1,390z"/>
	</g>
	<g>
		
			<linearGradient id="SVGID_00000116203348576261780030000004925552225402127540_" gradientUnits="userSpaceOnUse" x1="230.8754" y1="92.6002" x2="207.9869" y2="115.4887" gradientTransform="matrix(1 0 0 -1 0 501.2756)">
			<stop  offset="0" style="stop-color:#0837FF"/>
			<stop  offset="1" style="stop-color:#00B1FF"/>
		</linearGradient>
		<circle style="fill:url(#SVGID_00000116203348576261780030000004925552225402127540_);" cx="218.6" cy="396.4" r="18.6"/>
		<polygon class="st0" points="226.1,394.9 220.1,394.9 220.1,388.9 217.1,388.9 217.1,394.9 211.1,394.9 211.1,397.9 217.1,397.9 
			217.1,403.9 220.1,403.9 220.1,397.9 226.1,397.9 		"/>
	</g>
	<g>
		
			<linearGradient id="SVGID_00000079457020589997636700000013378444420325908402_" gradientUnits="userSpaceOnUse" x1="536.4161" y1="372.622" x2="503.2404" y2="405.7976" gradientTransform="matrix(1 0 0 -1 0 501.2756)">
			<stop  offset="0" style="stop-color:#FFA415"/>
			<stop  offset="0.9995" style="stop-color:#FF2A65"/>
		</linearGradient>
		<path style="fill:url(#SVGID_00000079457020589997636700000013378444420325908402_);" d="M506.8,132.9h23.7
			c5.6,0,10.2-4.6,10.2-10.2V99c0-5.6-4.6-10.2-10.2-10.2h-23.7c-5.6,0-10.2,4.6-10.2,10.2v23.7
			C496.6,128.4,501.1,132.9,506.8,132.9z"/>
		<path class="st0" d="M515.1,101.5l10,7.3c1.4,1,1.4,3.2,0,4.2l-10,7.3c-1.7,1.2-4.1,0-4.1-2.1v-14.5
			C511,101.5,513.4,100.3,515.1,101.5z"/>
	</g>
	<g>
		<g>
			
				<image style="overflow:visible;opacity:0.45;enable-background:new    ;" width="162" height="56" xlink:href="9584875F.png"  transform="matrix(1 0 0 1 109 59)">
			</image>
			<g>
				<path class="st0" d="M242.7,67.2H123c-3,0-5.5,2.5-5.5,5.5v14.6c0,3,2.5,5.5,5.5,5.5h119.7c3,0,5.5-2.5,5.5-5.5V72.7
					C248.2,69.7,245.7,67.2,242.7,67.2z"/>
			</g>
		</g>
		<g>
			<path class="st0" d="M138.7,75.2c0,1.3-1.1,2.4-2.4,2.4c-1.3,0-2.4-1.1-2.4-2.4s1.1-2.4,2.4-2.4
				C137.6,72.8,138.7,73.9,138.7,75.2z"/>
			<path class="st0" d="M141.7,85.5v-3.2c0-1.2-0.9-2.1-2.1-2.1h-6.7c-1.2,0-2.1,0.9-2.1,2.1v3.2H141.7z"/>
		</g>
		<path class="st0" d="M205.1,78.4h-42.5c-0.8,0-1.4,0.6-1.4,1.4l0,0c0,0.8,0.6,1.4,1.4,1.4h42.5c0.8,0,1.4-0.6,1.4-1.4l0,0
			C206.5,79,205.9,78.4,205.1,78.4z"/>
	</g>
	<g>
		
			<linearGradient id="SVGID_00000070088941141849215970000013395792594658170756_" gradientUnits="userSpaceOnUse" x1="581.4827" y1="78.4679" x2="477.5875" y2="182.3631" gradientTransform="matrix(1 0 0 -1 0 501.2756)">
			<stop  offset="0" style="stop-color:#0837FF"/>
			<stop  offset="1" style="stop-color:#00B1FF"/>
		</linearGradient>
		<path style="fill:url(#SVGID_00000070088941141849215970000013395792594658170756_);" d="M595.2,372.9H493.7
			c-4.4,0-7.9,3.6-7.9,7.9v10c0,4.4,3.6,7.9,7.9,7.9h101.6c4.4,0,7.9-3.6,7.9-7.9v-10C603.2,376.5,599.6,372.9,595.2,372.9z"/>
		<path class="st0" d="M565.3,383.5h-41.7c-1.2,0-2.2,1-2.2,2.2l0,0c0,1.2,1,2.2,2.2,2.2h41.7c1.2,0,2.2-1,2.2-2.2l0,0
			C567.4,384.4,566.5,383.5,565.3,383.5z"/>
	</g>
	<g>
		
			<linearGradient id="SVGID_00000057846943815145304010000011717296796123976599_" gradientUnits="userSpaceOnUse" x1="517.2632" y1="102.5064" x2="573.4808" y2="46.2887" gradientTransform="matrix(1 0 0 -1 0 501.2756)">
			<stop  offset="0" style="stop-color:#FFA415"/>
			<stop  offset="0.9995" style="stop-color:#FF2A65"/>
		</linearGradient>
		<path style="fill:url(#SVGID_00000057846943815145304010000011717296796123976599_);" d="M595.2,413.1H493.7
			c-4.4,0-7.9,3.6-7.9,7.9v10c0,4.4,3.6,7.9,7.9,7.9h101.6c4.4,0,7.9-3.6,7.9-7.9v-10C603.2,416.6,599.6,413.1,595.2,413.1z"/>
		<path class="st0" d="M565.3,424.1h-41.7c-1.2,0-2.2,1-2.2,2.2l0,0c0,1.2,1,2.2,2.2,2.2h41.7c1.2,0,2.2-1,2.2-2.2l0,0
			C567.4,425.1,566.5,424.1,565.3,424.1z"/>
	</g>
	<g>
		<g>
			
				<linearGradient id="SVGID_00000042718806463281774210000018288455231318169740_" gradientUnits="userSpaceOnUse" x1="600.0547" y1="373.2021" x2="567.5234" y2="405.7334" gradientTransform="matrix(1 0 0 -1 0 501.2756)">
				<stop  offset="0" style="stop-color:#0837FF"/>
				<stop  offset="1" style="stop-color:#00B1FF"/>
			</linearGradient>
			<path style="fill:url(#SVGID_00000042718806463281774210000018288455231318169740_);" d="M571,132.9h23.7
				c5.6,0,10.2-4.6,10.2-10.2V99c0-5.6-4.6-10.2-10.2-10.2H571c-5.6,0-10.2,4.6-10.2,10.2v23.7C560.8,128.4,565.4,132.9,571,132.9z"
				/>
		</g>
		<g>
			<polygon class="st0" points="591.7,108.6 591.7,117 574,117 574,108.6 571.9,108.6 571.9,119.2 593.9,119.2 593.9,108.6 			"/>
			<path class="st0" d="M588.4,109.4l-1.5-1.5l-2.9,2.9v-8.3h-2.2v8.3l-2.9-2.9l-1.5,1.5l5.5,5.5L588.4,109.4z M583,111.8L583,111.8
				h-0.2H583z"/>
		</g>
	</g>
	<g>
		<g>
			
				<linearGradient id="SVGID_00000176032506249382333560000001481905278753667484_" gradientUnits="userSpaceOnUse" x1="170.9341" y1="87.3415" x2="137.7585" y2="120.5171" gradientTransform="matrix(1 0 0 -1 0 501.2756)">
				<stop  offset="0" style="stop-color:#FFA415"/>
				<stop  offset="0.9995" style="stop-color:#FF2A65"/>
			</linearGradient>
			<path style="fill:url(#SVGID_00000176032506249382333560000001481905278753667484_);" d="M141.3,418.2H165
				c5.6,0,10.2-4.6,10.2-10.2v-23.7c0-5.6-4.6-10.2-10.2-10.2h-23.7c-5.6,0-10.2,4.6-10.2,10.2V408
				C131.1,413.6,135.7,418.2,141.3,418.2z"/>
		</g>
		<g>
			<polygon class="st0" points="162,394.9 162,403.3 144.3,403.3 144.3,394.9 142.2,394.9 142.2,405.5 164.2,405.5 164.2,394.9 			
				"/>
			<path class="st0" d="M147.6,394.4l1.5,1.5l2.9-2.9v8.3h2.2V393l2.9,2.9l1.5-1.5l-5.5-5.5L147.6,394.4z M153.1,392L153.1,392h0.2
				H153.1z"/>
		</g>
	</g>
	<g>
		<g>
			
				<image style="overflow:visible;opacity:0.45;enable-background:new    ;" width="162" height="56" xlink:href="95848750.png"  transform="matrix(1 0 0 1 109 100)">
			</image>
			<g>
				<path class="st0" d="M242.7,108.4H123c-3,0-5.5,2.5-5.5,5.5v14.6c0,3,2.5,5.5,5.5,5.5h119.7c3,0,5.5-2.5,5.5-5.5v-14.6
					C248.2,110.8,245.7,108.4,242.7,108.4z"/>
			</g>
		</g>
		<g>
			<path class="st0" d="M142.9,118.2h-9.8c-0.7,0-1.4,0.6-1.4,1.4v7c0,0.7,0.6,1.4,1.4,1.4h9.8c0.7,0,1.4-0.6,1.4-1.4v-7
				C144.3,118.8,143.7,118.2,142.9,118.2z M138.5,123.5v1.5c0,0.3-0.2,0.5-0.5,0.5s-0.5-0.2-0.5-0.5v-1.5c-0.5-0.2-1-0.7-1-1.4
				c0-0.8,0.7-1.4,1.4-1.4c0.8,0,1.5,0.6,1.5,1.4C139.5,122.8,139.1,123.3,138.5,123.5z"/>
			<path class="st0" d="M135.9,116.7V115c0-0.1,0.1-0.2,0.2-0.2h3.8c0.1,0,0.2,0.1,0.2,0.2v1.6h0.9V115c0-0.6-0.5-1.1-1.1-1.1h-3.8
				c-0.6,0-1.1,0.5-1.1,1.1v1.6L135.9,116.7L135.9,116.7z"/>
		</g>
		<g>
			<path class="st0" d="M165,121.6c0-0.9-0.8-1.7-1.7-1.7s-1.7,0.8-1.7,1.7c0,0.9,0.8,1.7,1.7,1.7C164.3,123.3,165,122.5,165,121.6z
				"/>
			<path class="st0" d="M177,121.6c0-0.9-0.8-1.7-1.7-1.7s-1.7,0.8-1.7,1.7c0,0.9,0.8,1.7,1.7,1.7S177,122.5,177,121.6z"/>
			<path class="st0" d="M188.9,121.6c0-0.9-0.8-1.7-1.7-1.7s-1.7,0.8-1.7,1.7c0,0.9,0.8,1.7,1.7,1.7
				C188.1,123.3,188.9,122.5,188.9,121.6z"/>
			<path class="st0" d="M200.8,121.6c0-0.9-0.8-1.7-1.7-1.7s-1.7,0.8-1.7,1.7c0,0.9,0.8,1.7,1.7,1.7S200.8,122.5,200.8,121.6z"/>
		</g>
	</g>
	<g>
		<g>
			
				<image style="overflow:visible;opacity:0.45;enable-background:new    ;" width="127" height="84" xlink:href="95848751.png"  transform="matrix(1 0 0 1 562 284)">
			</image>
			<g>
				<path class="st0" d="M658.7,345.3h-79.9c-4.5,0-8.2-3.7-8.2-8.2v-36.4c0-4.5,3.7-8.2,8.2-8.2h79.9c4.5,0,8.2,3.7,8.2,8.2v36.4
					C666.9,341.6,663.2,345.3,658.7,345.3z"/>
			</g>
		</g>
		<g>
			<g>
				
					<linearGradient id="SVGID_00000084518459316640362990000007327216219375713723_" gradientUnits="userSpaceOnUse" x1="650.8892" y1="144.1364" x2="605.1027" y2="189.9229" gradientTransform="matrix(1 0 0 -1 0 501.2756)">
					<stop  offset="0" style="stop-color:#0837FF"/>
					<stop  offset="1" style="stop-color:#00B1FF"/>
				</linearGradient>
				<path style="fill:url(#SVGID_00000084518459316640362990000007327216219375713723_);" d="M654.6,329.7c0,0.5-0.4,0.8-0.9,0.8
					c-3.2-0.2-5-1.8-6.6-3.2c-1.7-1.5-3.2-2.8-6.4-2.8c-3.1,0-4.6,2-6.3,4.1c-1.7,2.2-3.7,4.7-7.5,4.7c-4,0-5.8-4.6-7.6-9.1
					c-1.6-4-3.3-8.2-6.2-8.2s-4.6,4.1-6.2,8.2c-1.8,4.5-3.6,9.1-7.6,9.1c-3.9,0-5.8-2.9-7.6-5.6c-1.7-2.5-3.2-4.9-6.3-4.9
					c-0.4,0-0.8-0.3-0.8-0.8c0-0.4,0.3-0.8,0.8-0.8c3.9,0,5.8,2.9,7.6,5.6c1.7,2.5,3.2,4.9,6.3,4.9c2.9,0,4.6-4.1,6.2-8.2
					c1.8-4.5,3.6-9.1,7.6-9.1s5.8,4.6,7.6,9.1c1.6,4,3.3,8.2,6.2,8.2c3.1,0,4.6-2,6.3-4.1c1.7-2.2,3.7-4.7,7.5-4.7
					c3.7,0,5.7,1.7,7.4,3.2c1.5,1.3,3,2.6,5.7,2.8C654.3,328.9,654.6,329.3,654.6,329.7L654.6,329.7z"/>
				<g>
					
						<image style="overflow:visible;opacity:0.45;enable-background:new    ;" width="39" height="40" xlink:href="95848756.png"  transform="matrix(1 0 0 1 601 303)">
					</image>
					<g>
						<circle class="st0" cx="613.4" cy="315.9" r="4.2"/>
					</g>
				</g>
			</g>
			
				<linearGradient id="SVGID_00000082326777643526788850000011865906923222114445_" gradientUnits="userSpaceOnUse" x1="586.3074" y1="203.4368" x2="598.1057" y2="191.6384" gradientTransform="matrix(1 0 0 -1 0 501.2756)">
				<stop  offset="0" style="stop-color:#FFA415"/>
				<stop  offset="0.9995" style="stop-color:#FF2A65"/>
			</linearGradient>
			<path style="fill:url(#SVGID_00000082326777643526788850000011865906923222114445_);" d="M597.7,300.9h-12.9
				c-1.1,0-1.9,0.9-1.9,1.9l0,0c0,1.1,0.9,1.9,1.9,1.9h12.9c1.1,0,1.9-0.9,1.9-1.9l0,0C599.7,301.8,598.8,300.9,597.7,300.9z"/>
		</g>
	</g>
</g>
</svg>
